name analog
datacolumns 19
datarows 69
range 0.166 0.2
endheader
time	ground_force_vx	ground_force_vy	ground_force_vz	ground_force_px	ground_force_py	ground_force_pz	l_ground_force_vx	l_ground_force_vy	l_ground_force_vz	l_ground_force_px	l_ground_force_py	l_ground_force_pz	ground_torque_x	ground_torque_y	ground_torque_z	l_ground_torque_x	l_ground_torque_y	l_ground_torque_z
0.166	-0.0	-0.0	-0.0	-11.240524291992188	4.712767601013184	-31.675838470458984	4.691272735595703	-9.245145797729492	-732.9415283203125	-0.0	-0.0	-0.0	-0.0	-0.0	-0.0	258126.5	-8636.111328125	2327.87646484375
0.1665	-0.0	-0.0	-0.0	-11.31844997406006	3.2199695110321045	-23.951339721679688	4.563340663909912	-9.429452896118164	-735.550048828125	-0.0	-0.0	-0.0	-0.0	-0.0	-0.0	259654.96875	-8745.1435546875	2476.037109375
0.167	-0.0	-0.0	-0.0	-0.0	-0.0	-0.0	4.996220588684082	-9.340940475463867	-740.5087890625	-0.0	-0.0	-0.0	-0.0	-0.0	-0.0	260936.859375	-9082.853515625	2502.46240234375
0.1675	-0.0	-0.0	-0.0	-0.0	-0.0	-0.0	5.666719436645508	-9.25232982635498	-745.1581420898438	-0.0	-0.0	-0.0	-0.0	-0.0	-0.0	262160.375	-8888.6669921875	2678.646728515625
0.168	-0.0	-0.0	-0.0	-0.0	-0.0	-0.0	6.614398956298828	-9.400837898254396	-749.126220703125	-0.0	-0.0	-0.0	-0.0	-0.0	-0.0	263969.9375	-9438.3642578125	2905.75048828125
0.1685	-0.0	-0.0	-0.0	-0.0	-0.0	-0.0	7.335118770599365	-8.793477058410645	-754.0578002929688	-0.0	-0.0	-0.0	-0.0	-0.0	-0.0	265656.375	-9615.6962890625	2995.37744140625
0.169	-0.0	-0.0	-0.0	-0.0	-0.0	-0.0	7.945180892944336	-8.782466888427734	-758.2046508789062	-0.0	-0.0	-0.0	-0.0	-0.0	-0.0	267139.96875	-9922.6904296875	3192.247802734375
0.1695	-0.0	-0.0	-0.0	-0.0	-0.0	-0.0	8.577430725097656	-8.743846893310547	-762.4830322265625	-0.0	-0.0	-0.0	-0.0	-0.0	-0.0	268386.90625	-10206.919921875	3348.40771484375
0.17	-0.0	-0.0	-0.0	-0.0	-0.0	-0.0	9.464739799499512	-8.682719230651855	-765.8417358398438	-0.0	-0.0	-0.0	-0.0	-0.0	-0.0	269198.375	-10643.611328125	3580.942138671875
0.1705	-0.0	-0.0	-0.0	-0.0	-0.0	-0.0	9.924116134643556	-9.12413215637207	-766.93408203125	-0.0	-0.0	-0.0	-0.0	-0.0	-0.0	270127.3125	-10999.69140625	3842.929931640625
0.171	-0.0	-0.0	-0.0	-0.0	-0.0	-0.0	10.77256679534912	-9.692312240600586	-768.8319091796875	-0.0	-0.0	-0.0	-0.0	-0.0	-0.0	270662.28125	-11268.3779296875	3895.063720703125
0.1715	-0.0	-0.0	-0.0	-0.0	-0.0	-0.0	10.799250602722168	-10.030351638793944	-770.1822509765625	-0.0	-0.0	-0.0	-0.0	-0.0	-0.0	270897.03125	-11706.5556640625	4081.976318359375
0.17200000000000001	-0.0	-0.0	-0.0	-0.0	-0.0	-0.0	10.949868202209473	-9.880252838134766	-770.670654296875	-0.0	-0.0	-0.0	-0.0	-0.0	-0.0	270585.28125	-12246.7978515625	4124.6240234375
0.17250000000000001	-0.0	-0.0	-0.0	-0.0	-0.0	-0.0	11.35498046875	-9.653380393981934	-768.4356689453125	-0.0	-0.0	-0.0	-0.0	-0.0	-0.0	269646.96875	-12721.56640625	4167.42822265625
0.17300000000000001	-0.0	-0.0	-0.0	-0.0	-0.0	-0.0	12.04047966003418	-8.956611633300781	-765.1895751953125	-0.0	-0.0	-0.0	-0.0	-0.0	-0.0	268389.40625	-13483.2724609375	4426.908203125
0.17350000000000002	-0.0	-0.0	-0.0	-0.0	-0.0	-0.0	13.07874584197998	-8.567203521728516	-763.99169921875	-0.0	-0.0	-0.0	-0.0	-0.0	-0.0	266998.9375	-14424.2265625	4888.89794921875
0.17400000000000002	-0.0	-0.0	-0.0	-0.0	-0.0	-0.0	14.358823776245115	-8.074082374572754	-760.8062133789062	-0.0	-0.0	-0.0	-0.0	-0.0	-0.0	265698.0	-15807.58203125	5462.2236328125
0.17450000000000002	-0.0	-0.0	-0.0	-0.0	-0.0	-0.0	16.171035766601562	-9.009573936462402	-759.9039306640625	-0.0	-0.0	-0.0	-0.0	-0.0	-0.0	264503.25	-16771.669921875	6310.73876953125
0.17500000000000002	-0.0	-0.0	-0.0	-0.0	-0.0	-0.0	18.477373123168945	-10.599031448364258	-755.96435546875	-0.0	-0.0	-0.0	-0.0	-0.0	-0.0	263070.4375	-18141.15625	7155.28564453125
0.17550000000000002	-0.0	-0.0	-0.0	-0.0	-0.0	-0.0	20.58090209960937	-13.273454666137695	-755.2149658203125	-0.0	-0.0	-0.0	-0.0	-0.0	-0.0	261765.375	-18639.861328125	7901.900390625
0.176	-0.0	-0.0	-0.0	-0.0	-0.0	-0.0	22.02540779113769	-15.670226097106934	-753.6709594726562	-0.0	-0.0	-0.0	-0.0	-0.0	-0.0	260538.90625	-19083.76171875	8508.2890625
0.1765	-0.0	-0.0	-0.0	-0.0	-0.0	-0.0	22.013185501098636	-17.804075241088867	-749.9301147460938	-0.0	-0.0	-0.0	-0.0	-0.0	-0.0	259164.1875	-19301.59375	8499.3671875
0.177	-0.0	-0.0	-0.0	-0.0	-0.0	-0.0	21.936336517333984	-19.39310836791992	-747.7852783203125	-0.0	-0.0	-0.0	-0.0	-0.0	-0.0	257542.96875	-19531.39453125	8252.9130859375
0.1775	-0.0	-0.0	-0.0	-0.0	-0.0	-0.0	21.1887264251709	-20.83082389831543	-744.5982666015625	-0.0	-0.0	-0.0	-0.0	-0.0	-0.0	256197.078125	-19457.35546875	8087.19140625
0.178	-0.0	-0.0	-0.0	-0.0	-0.0	-0.0	21.11530876159668	-21.03165435791016	-739.9046020507812	-0.0	-0.0	-0.0	-0.0	-0.0	-0.0	255091.09375	-19353.7890625	7964.08056640625
0.1785	-0.0	-0.0	-0.0	-0.0	-0.0	-0.0	20.707260131835938	-20.88140106201172	-740.497802734375	-0.0	-0.0	-0.0	-0.0	-0.0	-0.0	254733.09375	-19467.859375	7713.970703125
0.179	-0.0	-0.0	-0.0	-0.0	-0.0	-0.0	20.543302536010746	-20.69417762756348	-740.5922241210938	-0.0	-0.0	-0.0	-0.0	-0.0	-0.0	254770.703125	-19485.79296875	7424.38330078125
0.1795	-0.0	-0.0	-0.0	-0.0	-0.0	-0.0	20.338642120361328	-19.23036003112793	-744.1360473632812	-0.0	-0.0	-0.0	-0.0	-0.0	-0.0	255842.40625	-19876.693359375	7278.42041015625
0.18	-0.0	-0.0	-0.0	-0.0	-0.0	-0.0	20.27730178833008	-17.803678512573242	-746.5403442382812	-0.0	-0.0	-0.0	-0.0	-0.0	-0.0	256772.984375	-19977.6328125	6988.87060546875
0.1805	-0.0	-0.0	-0.0	-0.0	-0.0	-0.0	20.086055755615234	-15.697815895080566	-750.5121459960938	-0.0	-0.0	-0.0	-0.0	-0.0	-0.0	258114.65625	-20262.400390625	6934.53173828125
0.181	-0.0	-0.0	-0.0	-0.0	-0.0	-0.0	20.12333106994629	-13.401668548583984	-753.2304077148438	-0.0	-0.0	-0.0	-0.0	-0.0	-0.0	259365.5625	-20608.490234375	6627.5615234375
0.1815	-0.0	-0.0	-0.0	-0.0	-0.0	-0.0	20.30569648742676	-11.570140838623049	-755.159423828125	-0.0	-0.0	-0.0	-0.0	-0.0	-0.0	259991.859375	-20919.720703125	6554.78271484375
0.182	-0.0	-0.0	-0.0	-0.0	-0.0	-0.0	20.366249084472656	-9.362098693847656	-756.206298828125	-0.0	-0.0	-0.0	-0.0	-0.0	-0.0	260965.0625	-21050.033203125	6342.9970703125
0.1825	-0.0	-0.0	-0.0	-0.0	-0.0	-0.0	20.35193634033203	-8.008644104003906	-757.22021484375	-0.0	-0.0	-0.0	-0.0	-0.0	-0.0	261105.921875	-21277.484375	6466.7724609375
0.183	-0.0	-0.0	-0.0	-0.0	-0.0	-0.0	21.00181198120117	-7.006235122680664	-756.8146362304688	-0.0	-0.0	-0.0	-0.0	-0.0	-0.0	261258.875	-21275.455078125	6348.84912109375
0.1835	-0.0	-0.0	-0.0	-0.0	-0.0	-0.0	20.484384536743164	-6.270839691162109	-756.580810546875	-0.0	-0.0	-0.0	-0.0	-0.0	-0.0	260777.65625	-21720.916015625	6259.7001953125
0.184	-0.0	-0.0	-0.0	-0.0	-0.0	-0.0	20.12984275817871	-6.116344451904297	-754.3710327148438	-0.0	-0.0	-0.0	-0.0	-0.0	-0.0	260228.609375	-21615.150390625	6237.2822265625
0.1845	-0.0	-0.0	-0.0	-0.0	-0.0	-0.0	19.619918823242188	-7.036194324493408	-751.5196533203125	-0.0	-0.0	-0.0	-0.0	-0.0	-0.0	259683.28125	-21387.162109375	6016.654296875
0.185	-0.0	-0.0	-0.0	-0.0	-0.0	-0.0	18.075115203857425	-7.485554218292236	-750.2996826171875	-0.0	-0.0	-0.0	-0.0	-0.0	-0.0	258794.21875	-21196.4296875	5454.50048828125
0.1855	-0.0	-0.0	-0.0	-0.0	-0.0	-0.0	16.43323516845703	-8.192272186279297	-747.8565673828125	-0.0	-0.0	-0.0	-0.0	-0.0	-0.0	257835.171875	-20623.740234375	4946.1484375
0.186	-0.0	-0.0	-0.0	-0.0	-0.0	-0.0	14.845123291015623	-8.302238464355469	-744.595703125	-0.0	-0.0	-0.0	-0.0	-0.0	-0.0	256875.828125	-20401.529296875	4265.666015625
0.1865	-0.0	-0.0	-0.0	-0.0	-0.0	-0.0	12.805036544799805	-8.296262741088867	-742.8870239257812	-0.0	-0.0	-0.0	-0.0	-0.0	-0.0	256733.09375	-19860.666015625	3601.478515625
0.187	-0.0	-0.0	-0.0	-0.0	-0.0	-0.0	11.31834316253662	-7.626403331756592	-742.1521606445312	-0.0	-0.0	-0.0	-0.0	-0.0	-0.0	256276.609375	-19415.669921875	3091.172607421875
0.1875	-0.0	-0.0	-0.0	-0.0	-0.0	-0.0	10.159774780273438	-7.278782367706299	-740.9398193359375	-0.0	-0.0	-0.0	-0.0	-0.0	-0.0	256097.328125	-18816.310546875	2537.240966796875
0.188	-0.0	-0.0	-0.0	-0.0	-0.0	-0.0	9.26759910583496	-6.67609167098999	-741.0637817382812	-0.0	-0.0	-0.0	-0.0	-0.0	-0.0	256304.90625	-18400.361328125	2058.682373046875
0.1885	-0.0	-0.0	-0.0	-0.0	-0.0	-0.0	8.088479042053223	-5.901824474334717	-739.7901000976562	-0.0	-0.0	-0.0	-0.0	-0.0	-0.0	256707.828125	-18130.55859375	1615.051513671875
0.189	-0.0	-0.0	-0.0	-0.0	-0.0	-0.0	7.185573577880859	-5.002590179443359	-740.7565307617188	-0.0	-0.0	-0.0	-0.0	-0.0	-0.0	257198.828125	-17923.740234375	1117.402587890625
0.1895	-0.0	-0.0	-0.0	-0.0	-0.0	-0.0	6.455589294433594	-4.23944091796875	-742.7086181640625	-0.0	-0.0	-0.0	-0.0	-0.0	-0.0	257464.390625	-17562.052734375	722.23876953125
0.19	-0.0	-0.0	-0.0	-0.0	-0.0	-0.0	5.782373905181885	-3.071251153945923	-742.232666015625	-0.0	-0.0	-0.0	-0.0	-0.0	-0.0	258254.671875	-17213.05078125	305.3807983398437
0.1905	-0.0	-0.0	-0.0	-0.0	-0.0	-0.0	4.59306001663208	-1.991771936416626	-743.5504760742188	-0.0	-0.0	-0.0	-0.0	-0.0	-0.0	258648.796875	-17217.77734375	-14.797149658203123
0.191	-0.0	-0.0	-0.0	-0.0	-0.0	-0.0	4.189164161682129	-0.8702332973480225	-744.4690551757812	-0.0	-0.0	-0.0	-0.0	-0.0	-0.0	258902.703125	-16903.833984375	-264.2180480957031
0.1915	-0.0	-0.0	-0.0	-0.0	-0.0	-0.0	3.91981840133667	0.3008902668952942	-744.8823852539062	-0.0	-0.0	-0.0	-0.0	-0.0	-0.0	259324.984375	-16591.189453125	-300.3100891113281
0.192	-0.0	-0.0	-0.0	-0.0	-0.0	-0.0	3.44036078453064	0.4250178337097168	-744.3362426757812	-0.0	-0.0	-0.0	-0.0	-0.0	-0.0	259792.421875	-16188.8583984375	-531.3980102539062
0.1925	-0.0	-0.0	-0.0	-0.0	-0.0	-0.0	3.778588056564331	1.2198176383972168	-744.4572143554688	-0.0	-0.0	-0.0	-0.0	-0.0	-0.0	259909.390625	-16086.689453125	-560.6195678710938
0.193	-0.0	-0.0	-0.0	-0.0	-0.0	-0.0	3.018261194229126	1.6066205501556396	-743.4185791015625	-0.0	-0.0	-0.0	-0.0	-0.0	-0.0	259755.25	-16001.7548828125	-667.7125854492188
0.1935	-0.0	-0.0	-0.0	-0.0	-0.0	-0.0	2.89345645904541	1.661186933517456	-742.7197265625	-0.0	-0.0	-0.0	-0.0	-0.0	-0.0	259619.71875	-15671.01171875	-857.77734375
0.194	-0.0	-0.0	-0.0	-0.0	-0.0	-0.0	2.2177696228027344	2.20804214477539	-741.1080322265625	-0.0	-0.0	-0.0	-0.0	-0.0	-0.0	259363.640625	-15430.3310546875	-1053.800048828125
0.1945	-0.0	-0.0	-0.0	-0.0	-0.0	-0.0	1.8111310005187988	2.914615631103516	-737.2723388671875	-0.0	-0.0	-0.0	-0.0	-0.0	-0.0	258780.890625	-15267.9951171875	-1184.5330810546875
0.195	-0.0	-0.0	-0.0	-0.0	-0.0	-0.0	1.808936595916748	3.0029373168945312	-736.2203369140625	-0.0	-0.0	-0.0	-0.0	-0.0	-0.0	258299.46875	-14930.7021484375	-1267.69921875
0.1955	-0.0	-0.0	-0.0	-0.0	-0.0	-0.0	2.0047452449798584	3.285331010818481	-733.7076416015625	-0.0	-0.0	-0.0	-0.0	-0.0	-0.0	257595.484375	-14769.779296875	-1374.1907958984375
0.196	-0.0	-0.0	-0.0	-0.0	-0.0	-0.0	1.8273714780807493	3.4273738861083984	-733.3583374023438	-0.0	-0.0	-0.0	-0.0	-0.0	-0.0	257350.1875	-14430.4853515625	-1380.150390625
0.1965	-0.0	-0.0	-0.0	-0.0	-0.0	-0.0	0.745128333568573	3.1265981197357178	-731.123291015625	-0.0	-0.0	-0.0	-0.0	-0.0	-0.0	257140.59375	-13780.978515625	-1665.8055419921875
0.197	-0.0	-0.0	-0.0	-0.0	-0.0	-0.0	-0.1952874958515167	2.9854578971862797	-728.81884765625	-0.0	-0.0	-0.0	-0.0	-0.0	-0.0	256473.65625	-13437.9794921875	-2063.9150390625
0.1975	-0.0	-0.0	-0.0	-0.0	-0.0	-0.0	-1.0819430351257324	2.8436310291290283	-727.0750122070312	-0.0	-0.0	-0.0	-0.0	-0.0	-0.0	255820.3125	-12824.359375	-2450.150390625
0.198	-0.0	-0.0	-0.0	-0.0	-0.0	-0.0	-2.3055953979492188	2.897480010986328	-725.6760864257812	-0.0	-0.0	-0.0	-0.0	-0.0	-0.0	255446.8125	-12345.71875	-2712.137939453125
0.1985	-0.0	-0.0	-0.0	-0.0	-0.0	-0.0	-2.8545515537261963	3.1263468265533447	-721.9068603515625	-0.0	-0.0	-0.0	-0.0	-0.0	-0.0	254783.3125	-11644.7802734375	-3187.072998046875
0.199	-0.0	-0.0	-0.0	-0.0	-0.0	-0.0	-3.70463228225708	3.2496607303619385	-721.208740234375	-0.0	-0.0	-0.0	-0.0	-0.0	-0.0	254314.84375	-10935.9140625	-3460.7333984375
0.1995	-0.0	-0.0	-0.0	-0.0	-0.0	-0.0	-4.5224385261535645	3.4261598587036133	-719.2523193359375	-0.0	-0.0	-0.0	-0.0	-0.0	-0.0	253748.1875	-10446.2578125	-3811.087646484375
0.2	-0.0	-0.0	-0.0	-0.0	-0.0	-0.0	-5.427833080291748	3.304912805557251	-716.2479858398438	-0.0	-0.0	-0.0	-0.0	-0.0	-0.0	253003.53125	-9705.8232421875	-3953.847412109375
